<svg width="25" height="24" viewBox="0 0 25 24" fill="none" xmlns="http://www.w3.org/2000/svg">
<path fill-rule="evenodd" clip-rule="evenodd" d="M20.5 18C21.0523 18 21.5 17.5523 21.5 17C21.5 16.4477 21.0523 16 20.5 16H4.5C3.94772 16 3.5 16.4477 3.5 17C3.5 17.5523 3.94772 18 4.5 18H20.5ZM20.5 13C21.0523 13 21.5 12.5523 21.5 12C21.5 11.4477 21.0523 11 20.5 11H4.5C3.94772 11 3.5 11.4477 3.5 12C3.5 12.5523 3.94772 13 4.5 13H20.5ZM3.5 7C3.5 7.55228 3.94772 8 4.5 8H20.5C21.0523 8 21.5 7.55228 21.5 7C21.5 6.44772 21.0523 6 20.5 6H4.5C3.94772 6 3.5 6.44772 3.5 7Z" fill="#003C71"/>
<mask id="mask0" mask-type="alpha" maskUnits="userSpaceOnUse" x="3" y="5" width="19" height="14">
<path fill-rule="evenodd" clip-rule="evenodd" d="M20.5 18C21.0523 18 21.5 17.5523 21.5 17C21.5 16.4477 21.0523 16 20.5 16H4.5C3.94772 16 3.5 16.4477 3.5 17C3.5 17.5523 3.94772 18 4.5 18H20.5ZM20.5 13C21.0523 13 21.5 12.5523 21.5 12C21.5 11.4477 21.0523 11 20.5 11H4.5C3.94772 11 3.5 11.4477 3.5 12C3.5 12.5523 3.94772 13 4.5 13H20.5ZM3.5 7C3.5 7.55228 3.94772 8 4.5 8H20.5C21.0523 8 21.5 7.55228 21.5 7C21.5 6.44772 21.0523 6 20.5 6H4.5C3.94772 6 3.5 6.44772 3.5 7Z" fill="white"/>
<path d="M20.5 18.5C21.3284 18.5 22 17.8284 22 17H21C21 17.2761 20.7761 17.5 20.5 17.5V18.5ZM22 17C22 16.1716 21.3284 15.5 20.5 15.5V16.5C20.7761 16.5 21 16.7239 21 17H22ZM20.5 15.5H4.5V16.5H20.5V15.5ZM4.5 15.5C3.67157 15.5 3 16.1716 3 17H4C4 16.7239 4.22386 16.5 4.5 16.5V15.5ZM3 17C3 17.8284 3.67157 18.5 4.5 18.5V17.5C4.22386 17.5 4 17.2761 4 17H3ZM4.5 18.5H20.5V17.5H4.5V18.5ZM20.5 13.5C21.3284 13.5 22 12.8284 22 12H21C21 12.2761 20.7761 12.5 20.5 12.5V13.5ZM22 12C22 11.1716 21.3284 10.5 20.5 10.5V11.5C20.7761 11.5 21 11.7239 21 12H22ZM20.5 10.5H4.5V11.5H20.5V10.5ZM4.5 10.5C3.67157 10.5 3 11.1716 3 12H4C4 11.7239 4.22386 11.5 4.5 11.5V10.5ZM3 12C3 12.8284 3.67157 13.5 4.5 13.5V12.5C4.22386 12.5 4 12.2761 4 12H3ZM4.5 13.5H20.5V12.5H4.5V13.5ZM3 7C3 7.82843 3.67157 8.5 4.5 8.5V7.5C4.22386 7.5 4 7.27614 4 7H3ZM4.5 8.5H20.5V7.5H4.5V8.5ZM20.5 8.5C21.3284 8.5 22 7.82843 22 7H21C21 7.27614 20.7761 7.5 20.5 7.5V8.5ZM22 7C22 6.17157 21.3284 5.5 20.5 5.5V6.5C20.7761 6.5 21 6.72386 21 7H22ZM20.5 5.5H4.5V6.5H20.5V5.5ZM4.5 5.5C3.67157 5.5 3 6.17157 3 7H4C4 6.72386 4.22386 6.5 4.5 6.5V5.5Z" fill="white"/>
</mask>
<g mask="url(#mask0)">
</g>
</svg>
