<svg width="25" height="24" viewBox="0 0 25 24" fill="none" xmlns="http://www.w3.org/2000/svg">
<path fill-rule="evenodd" clip-rule="evenodd" d="M20.5 18C21.0523 18 21.5 17.5523 21.5 17C21.5 16.4477 21.0523 16 20.5 16H4.5C3.94772 16 3.5 16.4477 3.5 17C3.5 17.5523 3.94772 18 4.5 18H20.5ZM20.5 13C21.0523 13 21.5 12.5523 21.5 12C21.5 11.4477 21.0523 11 20.5 11H4.5C3.94772 11 3.5 11.4477 3.5 12C3.5 12.5523 3.94772 13 4.5 13H20.5ZM3.5 7C3.5 7.55228 3.94772 8 4.5 8H20.5C21.0523 8 21.5 7.55228 21.5 7C21.5 6.44772 21.0523 6 20.5 6H4.5C3.94772 6 3.5 6.44772 3.5 7Z" fill="white"/>
<mask id="mask0" mask-type="alpha" maskUnits="userSpaceOnUse" x="3" y="6" width="19" height="12">
<path fill-rule="evenodd" clip-rule="evenodd" d="M20.5 18C21.0523 18 21.5 17.5523 21.5 17C21.5 16.4477 21.0523 16 20.5 16H4.5C3.94772 16 3.5 16.4477 3.5 17C3.5 17.5523 3.94772 18 4.5 18H20.5ZM20.5 13C21.0523 13 21.5 12.5523 21.5 12C21.5 11.4477 21.0523 11 20.5 11H4.5C3.94772 11 3.5 11.4477 3.5 12C3.5 12.5523 3.94772 13 4.5 13H20.5ZM3.5 7C3.5 7.55228 3.94772 8 4.5 8H20.5C21.0523 8 21.5 7.55228 21.5 7C21.5 6.44772 21.0523 6 20.5 6H4.5C3.94772 6 3.5 6.44772 3.5 7Z" fill="white"/>
</mask>
<g mask="url(#mask0)">
</g>
</svg>
