<svg width="190" height="56" viewBox="0 0 190 56" fill="none" xmlns="http://www.w3.org/2000/svg">
<g id="Group 1">
<path id="Vector" d="M182.265 0.00012207H7.26489C3.3989 0.00012207 0.264893 3.13413 0.264893 7.00012V49.0001C0.264893 52.8661 3.3989 56.0001 7.26489 56.0001H182.265C186.131 56.0001 189.265 52.8661 189.265 49.0001V7.00012C189.265 3.13413 186.131 0.00012207 182.265 0.00012207Z" fill="black"/>
<path id="Vector_2" d="M182.265 1.12012C185.485 1.12012 188.145 3.78012 188.145 7.00012V49.0001C188.145 52.2201 185.485 54.8801 182.265 54.8801H7.26489C4.04489 54.8801 1.38489 52.2201 1.38489 49.0001V7.00012C1.38489 3.78012 4.04489 1.12012 7.26489 1.12012H182.265ZM182.265 0.00012207H7.26489C3.34489 0.00012207 0.264893 3.08012 0.264893 7.00012V49.0001C0.264893 52.9201 3.34489 56.0001 7.26489 56.0001H182.265C186.045 56.0001 189.265 52.9201 189.265 49.0001V7.00012C189.265 3.08012 186.185 0.00012207 182.265 0.00012207Z" fill="#A6A6A6"/>
<g id="Group">
<path id="Vector_3" d="M66.6249 14.2802C66.6249 15.4002 66.3449 16.3802 65.6449 17.0802C64.8049 17.9202 63.8249 18.3402 62.5649 18.3402C61.3049 18.3402 60.3249 17.9202 59.4849 17.0802C58.6449 16.2402 58.2249 15.2602 58.2249 14.0002C58.2249 12.7402 58.6449 11.7602 59.4849 10.9202C60.3249 10.0802 61.3049 9.66016 62.5649 9.66016C63.8249 9.66016 63.6849 9.66016 64.2449 10.0802C64.8049 10.3602 65.2248 10.6402 65.5048 11.0602L64.8048 11.7602C64.2448 11.0602 63.5449 10.7802 62.5649 10.7802C61.5849 10.7802 60.8849 11.0602 60.3249 11.7602C59.6249 12.3202 59.3449 13.1602 59.3449 14.1402C59.3449 15.1202 59.6249 15.9602 60.3249 16.5202C61.0249 17.0802 61.7249 17.5002 62.5649 17.5002C63.4049 17.5002 64.2449 17.2202 64.9449 16.5202C65.3649 16.1002 65.6449 15.5402 65.6449 14.8402H62.5649V13.8602H66.6249C66.6249 14.1402 66.6249 14.2802 66.6249 14.5602V14.2802Z" fill="white" stroke="white" stroke-width="0.28" stroke-miterlimit="10"/>
<path id="Vector_4" d="M73.0648 10.7802H69.2848V13.4402H72.7848V14.4202H69.2848V17.0802H73.0648V18.0602H68.1648V9.66016H73.0648V10.6402V10.7802Z" fill="white" stroke="white" stroke-width="0.28" stroke-miterlimit="10"/>
<path id="Vector_5" d="M77.6849 18.2002H76.5649V10.7802H74.1849V9.80017H79.9249V10.7802H77.5448V18.2002H77.6849Z" fill="white" stroke="white" stroke-width="0.28" stroke-miterlimit="10"/>
<path id="Vector_6" d="M84.1249 18.2002V9.80017H85.2448V18.2002H84.1249Z" fill="white" stroke="white" stroke-width="0.28" stroke-miterlimit="10"/>
<path id="Vector_7" d="M90.0049 18.2002H88.8849V10.7802H86.5049V9.80017H92.2449V10.7802H89.8649V18.2002H90.0049Z" fill="white" stroke="white" stroke-width="0.28" stroke-miterlimit="10"/>
<path id="Vector_8" d="M103.305 17.0802C102.465 17.9202 101.485 18.3402 100.225 18.3402C98.9649 18.3402 97.9848 17.9202 97.1448 17.0802C96.3048 16.2402 95.8849 15.2602 95.8849 14.0002C95.8849 12.7402 96.3048 11.7602 97.1448 10.9202C97.9848 10.0802 98.9649 9.66016 100.225 9.66016C101.485 9.66016 102.465 10.0802 103.305 10.9202C104.145 11.7602 104.565 12.7402 104.565 14.0002C104.565 15.2602 104.145 16.2402 103.305 17.0802ZM97.9849 16.3802C98.5449 16.9402 99.3849 17.3602 100.225 17.3602C101.065 17.3602 101.905 17.0802 102.465 16.3802C103.025 15.8202 103.445 14.9802 103.445 14.0002C103.445 13.0202 103.165 12.1802 102.465 11.6202C101.905 11.0602 101.065 10.6402 100.225 10.6402C99.3849 10.6402 98.5449 10.9202 97.9849 11.6202C97.4249 12.1802 97.0049 13.0202 97.0049 14.0002C97.0049 14.9802 97.2849 15.8202 97.9849 16.3802Z" fill="white" stroke="white" stroke-width="0.28" stroke-miterlimit="10"/>
<path id="Vector_9" d="M106.105 18.2002V9.80017H107.365L111.425 16.3802V14.7002V9.80017H112.545V18.2002H111.425L107.085 11.3402V13.0202V18.2002H105.965H106.105Z" fill="white" stroke="white" stroke-width="0.28" stroke-miterlimit="10"/>
</g>
<path id="Vector_10" d="M95.6048 30.5201C92.2448 30.5201 89.5848 33.0401 89.5848 36.5401C89.5848 40.0401 92.2448 42.5601 95.6048 42.5601C98.9648 42.5601 101.625 40.0401 101.625 36.5401C101.625 33.0401 98.9648 30.5201 95.6048 30.5201ZM95.6048 40.0401C93.7848 40.0401 92.2448 38.5001 92.2448 36.4001C92.2448 34.3001 93.7848 32.7601 95.6048 32.7601C97.4248 32.7601 98.9648 34.1601 98.9648 36.4001C98.9648 38.6401 97.4248 40.0401 95.6048 40.0401ZM82.5848 30.5201C79.2248 30.5201 76.5648 33.0401 76.5648 36.5401C76.5648 40.0401 79.2248 42.5601 82.5848 42.5601C85.9448 42.5601 88.6048 40.0401 88.6048 36.5401C88.6048 33.0401 85.9448 30.5201 82.5848 30.5201ZM82.5848 40.0401C80.7648 40.0401 79.2248 38.5001 79.2248 36.4001C79.2248 34.3001 80.7648 32.7601 82.5848 32.7601C84.4048 32.7601 85.9448 34.1601 85.9448 36.4001C85.9448 38.6401 84.4048 40.0401 82.5848 40.0401ZM67.0448 32.3401V34.8601H73.0648C72.9248 36.2601 72.3648 37.3801 71.6648 38.0801C70.9648 38.7801 69.4248 39.9001 67.0448 39.9001C63.2648 39.9001 60.4648 36.9601 60.4648 33.1801C60.4648 29.4001 63.4048 26.4601 67.0448 26.4601C70.6848 26.4601 70.5448 27.3001 71.6648 28.2801L73.4848 26.4601C71.9448 25.0601 69.9848 23.9401 67.1848 23.9401C62.1448 23.9401 57.8048 28.1401 57.8048 33.1801C57.8048 38.2201 62.1448 42.4201 67.1848 42.4201C72.2248 42.4201 71.9448 41.5801 73.6248 39.7601C75.3048 38.0801 75.8648 35.7001 75.8648 33.8801C75.8648 32.0601 75.8648 32.7601 75.8648 32.3401H67.3248H67.0448ZM130.605 34.3001C130.045 32.9001 128.645 30.5201 125.565 30.5201C122.485 30.5201 119.965 32.9001 119.965 36.5401C119.965 40.1801 122.485 42.5601 125.845 42.5601C129.205 42.5601 130.185 40.8801 130.745 39.9001L128.785 38.5001C128.085 39.4801 127.245 40.1801 125.845 40.1801C124.445 40.1801 123.605 39.6201 122.905 38.3601L130.885 35.0001L130.605 34.3001ZM122.485 36.2601C122.485 34.0201 124.305 32.7601 125.565 32.7601C126.825 32.7601 127.525 33.3201 127.805 34.0201L122.485 36.2601ZM115.905 42.0001H118.565V24.5001H115.905V42.0001ZM111.705 31.7801C111.145 31.0801 110.025 30.3801 108.625 30.3801C105.685 30.3801 102.885 33.0401 102.885 36.4001C102.885 39.7601 105.545 42.2801 108.625 42.2801C111.705 42.2801 111.145 41.5801 111.705 40.8801V41.7201C111.705 43.9601 110.445 45.2201 108.485 45.2201C106.525 45.2201 105.825 44.1001 105.545 43.1201L103.305 44.1001C104.005 45.6401 105.685 47.6001 108.625 47.6001C111.565 47.6001 114.225 45.7801 114.225 41.4401V30.8001H111.705V31.7801ZM108.625 40.0401C106.805 40.0401 105.265 38.5001 105.265 36.4001C105.265 34.3001 106.805 32.7601 108.625 32.7601C110.445 32.7601 111.845 34.3001 111.845 36.4001C111.845 38.5001 110.445 40.0401 108.625 40.0401ZM142.785 24.5001H136.485V42.0001H139.145V35.4201H142.785C145.725 35.4201 148.525 33.3201 148.525 29.9601C148.525 26.6001 145.725 24.5001 142.785 24.5001ZM142.925 32.9001H139.145V26.8801H142.925C144.885 26.8801 146.005 28.5601 146.005 29.8201C146.005 31.0801 144.885 32.7601 142.925 32.7601V32.9001ZM159.025 30.3801C157.065 30.3801 155.105 31.2201 154.405 33.0401L156.785 34.0201C157.345 33.0401 158.185 32.7601 159.165 32.7601C160.145 32.7601 161.825 33.6001 161.965 35.0001C161.545 35.0001 160.425 34.4401 159.305 34.4401C156.785 34.4401 154.265 35.8401 154.265 38.3601C154.265 40.8801 156.365 42.2801 158.605 42.2801C160.845 42.2801 161.265 41.4401 161.965 40.6001V42.0001H164.485V35.2801C164.485 32.2001 162.105 30.3801 159.165 30.3801H159.025ZM158.745 40.0401C157.905 40.0401 156.645 39.6201 156.645 38.5001C156.645 37.3801 158.185 36.6801 159.445 36.6801C160.705 36.6801 161.125 36.9601 161.825 37.2401C161.685 38.9201 160.285 40.0401 158.745 40.0401ZM173.445 30.8001L170.505 38.3601L167.425 30.8001H164.625L169.245 41.4401L166.585 47.3201H169.245L176.385 30.8001H173.445ZM149.925 42.0001H152.585V24.5001H149.925V42.0001Z" fill="white"/>
<g id="Group_2">
<path id="Vector_11" d="M29.2448 27.1601L14.4048 42.9801C14.8248 44.6601 16.3648 45.9201 18.3248 45.9201C20.2848 45.9201 19.7248 45.7801 20.4248 45.3601L37.2248 35.7001L29.3848 27.1601H29.2448Z" fill="#EA4335"/>
<path id="Vector_12" d="M44.3648 24.5L37.0848 20.3L28.9648 27.58L37.0848 35.7L44.2248 31.5C45.4848 30.8 46.3248 29.54 46.3248 28C46.3248 26.46 45.4848 25.2 44.2248 24.5H44.3648Z" fill="#FBBC04"/>
<path id="Vector_13" d="M14.4048 13.0201C14.4048 13.3001 14.4048 13.7201 14.4048 14.0001V42.0001C14.4048 42.4201 14.4048 42.7001 14.4048 42.9801L29.8048 27.5801L14.4048 13.0201Z" fill="#4285F4"/>
<path id="Vector_14" d="M29.3848 28.0001L37.0848 20.3001L20.2848 10.6401C19.7248 10.2201 19.0248 10.0801 18.1848 10.0801C16.3648 10.0801 14.6848 11.3401 14.2648 13.0201L29.2448 28.0001H29.3848Z" fill="#34A853"/>
</g>
</g>
</svg>
