<svg width="169" height="56" viewBox="0 0 169 56" fill="none" xmlns="http://www.w3.org/2000/svg">
<g id="Group">
<g id="Group_2">
<g id="Group_3">
<path id="Vector" d="M154.924 0.000182H14.0837C13.5703 0.000182 13.0631 0.000182 12.5511 0.002982C12.1225 0.005782 11.6973 0.013916 11.2646 0.020762C10.3245 0.0318245 9.38662 0.114529 8.45911 0.268156C7.5329 0.425128 6.63571 0.721064 5.79788 1.14596C4.96107 1.57444 4.19645 2.13122 3.53177 2.79608C2.86359 3.45907 2.30662 4.22541 1.88226 5.06561C1.45673 5.90414 1.16167 6.8027 1.00726 7.73026C0.851384 8.65664 0.767506 9.59371 0.756378 10.5331C0.743386 10.9623 0.742014 11.393 0.735168 11.8223V44.1822C0.742014 44.6169 0.743386 45.038 0.756378 45.4729C0.76751 46.4122 0.851387 47.3492 1.00726 48.2755C1.16124 49.2036 1.45632 50.1027 1.88226 50.9416C2.30642 51.779 2.86348 52.5423 3.53177 53.2016C4.19393 53.8694 4.95904 54.4266 5.79788 54.8518C6.6357 55.2778 7.5328 55.5755 8.45911 55.7349C9.38678 55.8873 10.3245 55.97 11.2646 55.9824C11.6973 55.9919 12.1225 55.9974 12.5511 55.9974C13.0631 56.0002 13.5704 56.0002 14.0837 56.0002H154.924C155.427 56.0002 155.938 56.0002 156.441 55.9974C156.868 55.9974 157.306 55.9919 157.732 55.9824C158.67 55.9707 159.606 55.8879 160.532 55.7349C161.461 55.5744 162.362 55.2767 163.204 54.8518C164.042 54.4263 164.806 53.8692 165.468 53.2016C166.134 52.5397 166.692 51.777 167.122 50.9416C167.545 50.1021 167.837 49.2031 167.989 48.2755C168.145 47.3491 168.232 46.4123 168.248 45.4729C168.254 45.038 168.254 44.6169 168.254 44.1822C168.265 43.6736 168.265 43.1678 168.265 42.6509V13.3508C168.265 12.8381 168.265 12.3295 168.254 11.8223C168.254 11.393 168.254 10.9623 168.248 10.533C168.232 9.59357 168.145 8.65671 167.989 7.7302C167.836 6.80318 167.544 5.90469 167.122 5.06555C166.258 3.38146 164.887 2.01062 163.204 1.14583C162.362 0.721976 161.461 0.426119 160.532 0.26803C159.607 0.113726 158.67 0.0309929 157.732 0.020566C157.306 0.013734 156.868 0.00553 156.441 0.0028C155.938 0 155.427 0.000182 154.924 0.000182Z" fill="#A6A6A6"/>
<path id="Vector_2" d="M12.558 54.775C12.1314 54.775 11.7152 54.7695 11.292 54.76C10.4153 54.7486 9.54061 54.6722 8.67517 54.5317C7.8682 54.3927 7.08646 54.1341 6.35574 53.7646C5.63172 53.3981 4.97135 52.9176 4.39994 52.3414C3.82025 51.7719 3.33764 51.1115 2.97122 50.3863C2.60077 49.6563 2.34439 48.8738 2.21102 48.0662C2.067 47.1983 1.98907 46.3208 1.97792 45.4412C1.96905 45.1459 1.95743 44.1628 1.95743 44.1628V11.8221C1.95743 11.8221 1.9698 10.8541 1.97799 10.5697C1.98867 9.69145 2.06614 8.81529 2.20974 7.9488C2.34335 7.13893 2.59993 6.35422 2.97058 5.62186C3.33565 4.8971 3.81558 4.23618 4.39178 3.66473C4.96732 3.08785 5.6298 2.60482 6.35505 2.23327C7.0841 1.86491 7.86436 1.6082 8.6697 1.47175C9.53798 1.32975 10.4157 1.25297 11.2954 1.24207L12.5587 1.22498H156.435L157.713 1.24276C158.585 1.25311 159.454 1.32921 160.315 1.47038C161.128 1.60854 161.917 1.86704 162.654 2.23737C164.107 2.98616 165.289 4.1708 166.035 5.62527C166.4 6.35258 166.652 7.13088 166.784 7.93376C166.93 8.80736 167.011 9.69041 167.028 10.5759C167.032 10.9723 167.032 11.3982 167.032 11.8221C167.043 12.3471 167.043 12.8468 167.043 13.3506V42.6507C167.043 43.1593 167.043 43.6556 167.032 44.156C167.032 44.6113 167.032 45.0283 167.026 45.4576C167.01 46.3272 166.93 47.1945 166.787 48.0525C166.656 48.8659 166.401 49.6545 166.031 50.3905C165.662 51.1078 165.182 51.7625 164.609 52.3304C164.037 52.9097 163.376 53.3931 162.65 53.7619C161.915 54.1343 161.127 54.3938 160.315 54.5317C159.449 54.673 158.575 54.7493 157.698 54.76C157.288 54.7695 156.858 54.775 156.441 54.775L154.924 54.7778L12.558 54.775Z" fill="black"/>
</g>
<g id="&#60;Group&#62;">
<g id="&#60;Group&#62;_2">
<g id="&#60;Group&#62;_3">
<path id="&#60;Path&#62;" d="M35.4116 28.4209C35.4267 27.2524 35.7371 26.1067 36.3139 25.0903C36.8908 24.074 37.7153 23.2201 38.7108 22.6081C38.0784 21.7048 37.2441 20.9615 36.2741 20.4371C35.3042 19.9128 34.2253 19.6218 33.1232 19.5873C30.7723 19.3405 28.4931 20.9941 27.2951 20.9941C26.074 20.9941 24.2295 19.6118 22.2432 19.6527C20.9585 19.6942 19.7064 20.0678 18.609 20.7371C17.5116 21.4063 16.6062 22.3485 15.9812 23.4717C13.2736 28.1595 15.2932 35.0489 17.8868 38.8382C19.1845 40.6937 20.7011 42.7663 22.6855 42.6928C24.6274 42.6123 25.3527 41.4545 27.6967 41.4545C30.0189 41.4545 30.6994 42.6928 32.7241 42.6461C34.8078 42.6123 36.1207 40.7823 37.3728 38.9093C38.3052 37.5872 39.0226 36.126 39.4986 34.5798C38.288 34.0678 37.2549 33.2107 36.5281 32.1155C35.8014 31.0203 35.4131 29.7354 35.4116 28.4209Z" fill="white"/>
<path id="&#60;Path&#62;_2" d="M31.5874 17.0952C32.7235 15.7314 33.2832 13.9783 33.1477 12.2084C31.4119 12.3907 29.8086 13.2203 28.6571 14.5318C28.0941 15.1726 27.6629 15.918 27.3881 16.7254C27.1134 17.5329 27.0005 18.3866 27.0559 19.2378C27.9241 19.2467 28.783 19.0585 29.5679 18.6874C30.3528 18.3163 31.0433 17.7719 31.5874 17.0952Z" fill="white"/>
</g>
</g>
<g id="Group_4">
<path id="Vector_3" d="M59.9584 37.9955H53.3317L51.7402 42.6945H48.9334L55.2102 25.3093H58.1264L64.4031 42.6945H61.5484L59.9584 37.9955ZM54.018 35.8271H59.2708L56.6813 28.201H56.6089L54.018 35.8271Z" fill="white"/>
<path id="Vector_4" d="M77.9592 36.3576C77.9592 40.2965 75.851 42.8272 72.6695 42.8272C71.8636 42.8693 71.0621 42.6837 70.3568 42.2915C69.6515 41.8993 69.0709 41.3164 68.6814 40.6096H68.6212V46.8877H66.0195V30.0194H68.5379V32.1276H68.5857C68.9931 31.4241 69.5835 30.8442 70.2942 30.4497C71.0048 30.0551 71.8092 29.8605 72.6217 29.8867C75.8386 29.8868 77.9592 32.4297 77.9592 36.3576ZM75.2849 36.3576C75.2849 33.7914 73.9588 32.1043 71.9353 32.1043C69.9474 32.1043 68.6103 33.827 68.6103 36.3576C68.6103 38.9116 69.9474 40.6219 71.9353 40.6219C73.9588 40.6219 75.2849 38.9471 75.2849 36.3576Z" fill="white"/>
<path id="Vector_5" d="M91.9099 36.3576C91.9099 40.2965 89.8017 42.8272 86.6203 42.8272C85.8144 42.8693 85.0129 42.6837 84.3076 42.2915C83.6023 41.8993 83.0216 41.3164 82.6322 40.6096H82.572V46.8877H79.9702V30.0193H82.4886V32.1275H82.5364C82.9438 31.4241 83.5342 30.8442 84.2449 30.4497C84.9556 30.0551 85.7599 29.8605 86.5724 29.8867C89.7894 29.8867 91.9099 32.4297 91.9099 36.3576ZM89.2357 36.3576C89.2357 33.7914 87.9095 32.1043 85.8861 32.1043C83.8982 32.1043 82.5611 33.827 82.5611 36.3576C82.5611 38.9115 83.8982 40.6219 85.8861 40.6219C87.9095 40.6219 89.2357 38.9471 89.2357 36.3576Z" fill="white"/>
<path id="Vector_6" d="M101.13 37.8506C101.323 39.5746 102.998 40.7066 105.286 40.7066C107.479 40.7066 109.057 39.5746 109.057 38.0201C109.057 36.6706 108.106 35.8627 105.853 35.3089L103.599 34.7662C100.407 33.9951 98.925 32.5021 98.925 30.0794C98.925 27.0798 101.539 25.0195 105.251 25.0195C108.925 25.0195 111.443 27.0798 111.528 30.0794H108.901C108.744 28.3445 107.31 27.2972 105.214 27.2972C103.118 27.2972 101.684 28.3568 101.684 29.899C101.684 31.1281 102.6 31.8513 104.841 32.405L106.756 32.8753C110.323 33.7188 111.805 35.1517 111.805 37.6946C111.805 40.9472 109.214 42.9843 105.094 42.9843C101.238 42.9843 98.6351 40.995 98.4669 37.8505L101.13 37.8506Z" fill="white"/>
<path id="Vector_7" d="M117.42 27.0197V30.0193H119.83V32.0797H117.42V39.0674C117.42 40.1529 117.903 40.6588 118.962 40.6588C119.248 40.6538 119.534 40.6337 119.818 40.5986V42.6466C119.342 42.7356 118.857 42.7759 118.373 42.7669C115.807 42.7669 114.806 41.8031 114.806 39.3449V32.0797H112.963V30.0193H114.806V27.0197H117.42Z" fill="white"/>
<path id="Vector_8" d="M121.226 36.3577C121.226 32.3696 123.575 29.8635 127.238 29.8635C130.913 29.8635 133.251 32.3695 133.251 36.3577C133.251 40.3567 130.925 42.8518 127.238 42.8518C123.552 42.8518 121.226 40.3567 121.226 36.3577ZM130.6 36.3577C130.6 33.6219 129.346 32.0073 127.238 32.0073C125.13 32.0073 123.877 33.6342 123.877 36.3577C123.877 39.1043 125.13 40.7067 127.238 40.7067C129.346 40.7067 130.6 39.1043 130.6 36.3577Z" fill="white"/>
<path id="Vector_9" d="M135.396 30.0194H137.877V32.1768H137.937C138.105 31.503 138.5 30.9075 139.055 30.4905C139.61 30.0734 140.292 29.8602 140.986 29.8867C141.286 29.8857 141.585 29.9182 141.878 29.9838V32.4174C141.499 32.3017 141.104 32.2486 140.709 32.2602C140.331 32.2448 139.954 32.3115 139.604 32.4555C139.254 32.5996 138.94 32.8176 138.682 33.0946C138.425 33.3717 138.23 33.7012 138.112 34.0605C137.994 34.4199 137.955 34.8005 137.997 35.1764V42.6945H135.396L135.396 30.0194Z" fill="white"/>
<path id="Vector_10" d="M153.873 38.9717C153.523 41.2726 151.282 42.8517 148.415 42.8517C144.728 42.8517 142.439 40.3812 142.439 36.4178C142.439 32.442 144.74 29.8635 148.306 29.8635C151.813 29.8635 154.018 32.2724 154.018 36.1156V37.007H145.066V37.1642C145.025 37.6307 145.083 38.1007 145.237 38.5428C145.391 38.985 145.638 39.3893 145.96 39.7289C146.283 40.0684 146.674 40.3355 147.108 40.5123C147.541 40.6892 148.008 40.7717 148.476 40.7545C149.09 40.8121 149.707 40.6697 150.235 40.3485C150.762 40.0272 151.172 39.5444 151.403 38.9717L153.873 38.9717ZM145.078 35.1887H151.415C151.438 34.7692 151.375 34.3495 151.228 33.9558C151.082 33.5621 150.855 33.2029 150.563 32.9009C150.272 32.5988 149.92 32.3603 149.532 32.2004C149.143 32.0405 148.726 31.9626 148.306 31.9717C147.882 31.9691 147.462 32.0505 147.07 32.2112C146.678 32.3718 146.322 32.6085 146.022 32.9076C145.722 33.2067 145.484 33.5622 145.322 33.9538C145.16 34.3453 145.077 34.765 145.078 35.1887Z" fill="white"/>
</g>
</g>
</g>
<g id="&#60;Group&#62;_4">
<g id="Group_5">
<path id="Vector_11" d="M53.6919 12.2234C54.2373 12.1843 54.7847 12.2667 55.2944 12.4647C55.8042 12.6627 56.2637 12.9714 56.6397 13.3684C57.0157 13.7655 57.2989 14.2411 57.4689 14.7609C57.6388 15.2806 57.6913 15.8317 57.6225 16.3742C57.6225 19.0429 56.1802 20.577 53.6919 20.577H50.6745V12.2234H53.6919ZM51.9719 19.3956H53.5469C53.9367 19.4189 54.3268 19.355 54.6887 19.2085C55.0507 19.0621 55.3754 18.8368 55.6393 18.549C55.9032 18.2612 56.0996 17.9182 56.2142 17.5449C56.3288 17.1716 56.3587 16.7775 56.3018 16.3912C56.3546 16.0064 56.3217 15.6148 56.2053 15.2442C56.0889 14.8737 55.892 14.5335 55.6287 14.248C55.3655 13.9625 55.0423 13.7388 54.6824 13.5928C54.3225 13.4469 53.9347 13.3824 53.5469 13.4039H51.9719V19.3956Z" fill="white"/>
<path id="Vector_12" d="M59.0882 17.4221C59.0485 17.0078 59.0959 16.5898 59.2273 16.1949C59.3587 15.8 59.5711 15.437 59.8511 15.129C60.131 14.821 60.4722 14.5749 60.8528 14.4066C61.2334 14.2382 61.6449 14.1512 62.0611 14.1512C62.4773 14.1512 62.8889 14.2382 63.2695 14.4066C63.6501 14.5749 63.9912 14.821 64.2712 15.129C64.5511 15.437 64.7635 15.8 64.8949 16.1949C65.0263 16.5898 65.0737 17.0078 65.0341 17.4221C65.0744 17.8368 65.0276 18.2554 64.8966 18.6509C64.7656 19.0465 64.5532 19.4102 64.2732 19.7188C63.9932 20.0274 63.6518 20.274 63.2708 20.4427C62.8898 20.6115 62.4778 20.6986 62.0611 20.6986C61.6444 20.6986 61.2324 20.6115 60.8514 20.4427C60.4704 20.274 60.129 20.0274 59.849 19.7188C59.569 19.4102 59.3567 19.0465 59.2256 18.6509C59.0946 18.2554 59.0478 17.8368 59.0882 17.4221ZM63.7544 17.4221C63.7544 16.0556 63.1405 15.2565 62.0632 15.2565C60.9817 15.2565 60.3734 16.0556 60.3734 17.4221C60.3734 18.7996 60.9818 19.5925 62.0632 19.5925C63.1405 19.5925 63.7544 18.7941 63.7544 17.4221Z" fill="white"/>
<path id="Vector_13" d="M72.9378 20.5769H71.6472L70.3442 15.9339H70.2458L68.9483 20.5769H67.67L65.9323 14.2728H67.1942L68.3235 19.0832H68.4165L69.7126 14.2728H70.9062L72.2022 19.0832H72.3007L73.4245 14.2728H74.6686L72.9378 20.5769Z" fill="white"/>
<path id="Vector_14" d="M76.1302 14.2728H77.3278V15.2743H77.4208C77.5785 14.9146 77.8445 14.613 78.1817 14.4117C78.5189 14.2104 78.9106 14.1193 79.302 14.1511C79.6088 14.128 79.9168 14.1743 80.2032 14.2864C80.4896 14.3986 80.7472 14.5737 80.9567 14.7989C81.1663 15.0241 81.3225 15.2935 81.4138 15.5873C81.5051 15.881 81.5291 16.1915 81.4841 16.4958V20.5768H80.2399V16.8082C80.2399 15.7952 79.7997 15.2913 78.8796 15.2913C78.6713 15.2816 78.4634 15.3171 78.2701 15.3953C78.0769 15.4734 77.9028 15.5924 77.7598 15.7442C77.6168 15.8959 77.5083 16.0768 77.4418 16.2744C77.3753 16.472 77.3522 16.6816 77.3743 16.8889V20.5769H76.1302L76.1302 14.2728Z" fill="white"/>
<path id="Vector_15" d="M83.4665 11.8118H84.7106V20.5769H83.4665V11.8118Z" fill="white"/>
<path id="Vector_16" d="M86.4401 17.4221C86.4005 17.0078 86.4479 16.5898 86.5793 16.1949C86.7108 15.8 86.9232 15.4369 87.2032 15.1289C87.4831 14.8209 87.8244 14.5748 88.205 14.4064C88.5856 14.238 88.9972 14.1511 89.4134 14.1511C89.8296 14.1511 90.2412 14.238 90.6218 14.4064C91.0025 14.5748 91.3437 14.8209 91.6236 15.1289C91.9036 15.4369 92.1161 15.8 92.2475 16.1949C92.3789 16.5898 92.4263 17.0078 92.3867 17.4221C92.427 17.8368 92.3802 18.2554 92.2491 18.6509C92.118 19.0465 91.9056 19.4102 91.6256 19.7188C91.3456 20.0274 91.0041 20.2739 90.6232 20.4427C90.2422 20.6114 89.8301 20.6986 89.4134 20.6986C88.9967 20.6986 88.5846 20.6114 88.2037 20.4427C87.8227 20.2739 87.4812 20.0274 87.2012 19.7188C86.9212 19.4102 86.7088 19.0465 86.5777 18.6509C86.4467 18.2554 86.3998 17.8368 86.4401 17.4221ZM91.1063 17.4221C91.1063 16.0556 90.4924 15.2565 89.4151 15.2565C88.3337 15.2565 87.7253 16.0556 87.7253 17.4221C87.7253 18.7996 88.3337 19.5925 89.4151 19.5925C90.4925 19.5925 91.1063 18.7941 91.1063 17.4221Z" fill="white"/>
<path id="Vector_17" d="M93.6965 18.7941C93.6965 17.6593 94.5414 17.0051 96.0412 16.9121L97.7488 16.8137V16.2696C97.7488 15.6038 97.3086 15.2278 96.4582 15.2278C95.7637 15.2278 95.2824 15.4828 95.1443 15.9285H93.9398C94.067 14.8456 95.0855 14.1511 96.5156 14.1511C98.0961 14.1511 98.9875 14.9379 98.9875 16.2696V20.5769H97.7898V19.691H97.6914C97.4916 20.0088 97.211 20.2678 96.8784 20.4417C96.5457 20.6156 96.1728 20.6981 95.7978 20.6808C95.5332 20.7083 95.2657 20.6801 95.0126 20.5979C94.7596 20.5157 94.5265 20.3814 94.3286 20.2036C94.1306 20.0259 93.972 19.8086 93.8632 19.5658C93.7543 19.3231 93.6975 19.0602 93.6965 18.7941ZM97.7488 18.2554V17.7284L96.2094 17.8268C95.3412 17.8849 94.9474 18.1802 94.9474 18.736C94.9474 19.3033 95.4396 19.6335 96.1164 19.6335C96.3147 19.6536 96.5151 19.6336 96.7055 19.5746C96.8959 19.5157 97.0725 19.4191 97.2248 19.2905C97.3771 19.1619 97.502 19.004 97.592 18.8262C97.682 18.6484 97.7353 18.4543 97.7488 18.2554Z" fill="white"/>
<path id="Vector_18" d="M100.623 17.4221C100.623 15.4301 101.647 14.1682 103.239 14.1682C103.633 14.15 104.024 14.2444 104.367 14.4403C104.709 14.6361 104.989 14.9254 105.173 15.2742H105.266V11.8118H106.51V20.5769H105.318V19.5809H105.219C105.021 19.9273 104.732 20.213 104.383 20.4069C104.034 20.6007 103.638 20.6955 103.239 20.6808C101.636 20.6808 100.623 19.4189 100.623 17.4221ZM101.908 17.4221C101.908 18.7592 102.538 19.5638 103.592 19.5638C104.641 19.5638 105.289 18.7476 105.289 17.4276C105.289 16.1137 104.634 15.2859 103.592 15.2859C102.545 15.2859 101.908 16.0959 101.908 17.4221Z" fill="white"/>
<path id="Vector_19" d="M111.657 17.4221C111.618 17.0078 111.665 16.5898 111.796 16.1949C111.928 15.8 112.14 15.437 112.42 15.129C112.7 14.821 113.041 14.5749 113.422 14.4066C113.802 14.2382 114.214 14.1512 114.63 14.1512C115.046 14.1512 115.458 14.2382 115.839 14.4066C116.219 14.5749 116.56 14.821 116.84 15.129C117.12 15.437 117.333 15.8 117.464 16.1949C117.595 16.5898 117.643 17.0078 117.603 17.4221C117.644 17.8368 117.597 18.2554 117.466 18.6509C117.335 19.0465 117.122 19.4102 116.842 19.7188C116.562 20.0274 116.221 20.274 115.84 20.4427C115.459 20.6115 115.047 20.6986 114.63 20.6986C114.213 20.6986 113.801 20.6115 113.42 20.4427C113.039 20.274 112.698 20.0274 112.418 19.7188C112.138 19.4102 111.926 19.0465 111.795 18.6509C111.664 18.2554 111.617 17.8368 111.657 17.4221ZM116.323 17.4221C116.323 16.0556 115.71 15.2565 114.632 15.2565C113.551 15.2565 112.942 16.0556 112.942 17.4221C112.942 18.7996 113.551 19.5925 114.632 19.5925C115.71 19.5925 116.323 18.7941 116.323 17.4221Z" fill="white"/>
<path id="Vector_20" d="M119.272 14.2728H120.47V15.2743H120.563C120.721 14.9146 120.987 14.613 121.324 14.4117C121.661 14.2104 122.053 14.1193 122.444 14.1511C122.751 14.128 123.059 14.1743 123.345 14.2864C123.632 14.3986 123.889 14.5737 124.099 14.7989C124.309 15.0241 124.465 15.2935 124.556 15.5873C124.647 15.881 124.671 16.1915 124.626 16.4958V20.5768H123.382V16.8082C123.382 15.7952 122.942 15.2913 122.022 15.2913C121.814 15.2816 121.606 15.3171 121.412 15.3953C121.219 15.4734 121.045 15.5924 120.902 15.7442C120.759 15.8959 120.651 16.0768 120.584 16.2744C120.518 16.472 120.495 16.6816 120.517 16.8889V20.5769H119.272V14.2728Z" fill="white"/>
<path id="Vector_21" d="M131.656 12.7032V14.3015H133.022V15.3494H131.656V18.591C131.656 19.2514 131.929 19.5406 132.548 19.5406C132.706 19.54 132.865 19.5305 133.022 19.5118V20.5482C132.799 20.5881 132.572 20.6094 132.346 20.6117C130.962 20.6117 130.411 20.125 130.411 18.9096V15.3494H129.41V14.3014H130.411V12.7032H131.656Z" fill="white"/>
<path id="Vector_22" d="M134.722 11.8118H135.955V15.2859H136.053C136.219 14.9228 136.492 14.6196 136.836 14.4175C137.18 14.2154 137.578 14.1243 137.976 14.1566C138.281 14.14 138.586 14.1909 138.869 14.3058C139.152 14.4206 139.406 14.5966 139.614 14.821C139.821 15.0455 139.976 15.313 140.069 15.6044C140.161 15.8958 140.187 16.2039 140.147 16.5068V20.5769H138.901V16.8137C138.901 15.8067 138.432 15.2968 137.553 15.2968C137.339 15.2792 137.124 15.3086 136.923 15.3829C136.722 15.4572 136.539 15.5745 136.388 15.7268C136.237 15.879 136.121 16.0624 136.048 16.2642C135.975 16.466 135.947 16.6813 135.966 16.895V20.5768H134.722L134.722 11.8118Z" fill="white"/>
<path id="Vector_23" d="M147.401 18.8747C147.232 19.4509 146.866 19.9493 146.366 20.2827C145.867 20.6161 145.266 20.7633 144.669 20.6986C144.254 20.7095 143.841 20.63 143.46 20.4654C143.078 20.3009 142.737 20.0553 142.46 19.7457C142.183 19.4361 141.977 19.0699 141.855 18.6726C141.734 18.2752 141.7 17.8562 141.757 17.4447C141.702 17.0318 141.736 16.6119 141.857 16.2134C141.978 15.8148 142.183 15.447 142.459 15.1347C142.735 14.8224 143.074 14.5729 143.455 14.4032C143.835 14.2335 144.247 14.1476 144.664 14.1511C146.418 14.1511 147.476 15.3495 147.476 17.3291V17.7632H143.025V17.833C143.005 18.0643 143.034 18.2972 143.11 18.5166C143.186 18.7361 143.307 18.9373 143.465 19.1073C143.623 19.2773 143.815 19.4125 144.028 19.504C144.241 19.5956 144.471 19.6415 144.704 19.639C145.001 19.6747 145.303 19.6211 145.57 19.485C145.837 19.3489 146.057 19.1365 146.203 18.8747L147.401 18.8747ZM143.025 16.8431H146.209C146.224 16.6315 146.196 16.419 146.124 16.2192C146.053 16.0194 145.941 15.8367 145.795 15.6829C145.648 15.5291 145.472 15.4076 145.276 15.3261C145.08 15.2447 144.869 15.2051 144.657 15.21C144.442 15.2073 144.228 15.2477 144.029 15.3288C143.83 15.4099 143.649 15.5301 143.496 15.6823C143.344 15.8345 143.224 16.0157 143.143 16.215C143.062 16.4144 143.022 16.6279 143.025 16.8431Z" fill="white"/>
</g>
</g>
</g>
</svg>
