<svg width="32" height="33" viewBox="0 0 32 33" fill="none" xmlns="http://www.w3.org/2000/svg">
<g clip-path="url(#clip0_4082_29338)">
<path d="M8.44446 7.84814V9.34814H23.5556V7.84814V6.34814H8.44446V7.84814ZM25.5556 9.84814H24.0556V23.6259H25.5556H27.0556V9.84814H25.5556ZM23.5556 25.6259V24.1259H8.44446V25.6259V27.1259H23.5556V25.6259ZM6.44446 23.6259H7.94446V9.84815H6.44446H4.94446V23.6259H6.44446ZM8.44446 25.6259V24.1259C8.16832 24.1259 7.94446 23.9021 7.94446 23.6259H6.44446H4.94446C4.94446 25.5589 6.51147 27.1259 8.44446 27.1259V25.6259ZM25.5556 23.6259H24.0556C24.0556 23.9021 23.8317 24.1259 23.5556 24.1259V25.6259V27.1259C25.4886 27.1259 27.0556 25.5589 27.0556 23.6259H25.5556ZM23.5556 7.84814V9.34814C23.8317 9.34814 24.0556 9.57201 24.0556 9.84814H25.5556H27.0556C27.0556 7.91515 25.4886 6.34814 23.5556 6.34814V7.84814ZM8.44446 7.84814V6.34814C6.51146 6.34814 4.94446 7.91515 4.94446 9.84815H6.44446H7.94446C7.94446 9.572 8.16832 9.34814 8.44446 9.34814V7.84814Z" fill="#262AFF"/>
<path d="M6.40918 13.5703L25.5943 13.5703" stroke="#262AFF" stroke-width="3" stroke-linejoin="round"/>
<path d="M11.667 5.51465L11.667 9.51465" stroke="#262AFF" stroke-width="3" stroke-linecap="round" stroke-linejoin="round"/>
<path d="M20.333 5.51465V9.51465" stroke="#262AFF" stroke-width="3" stroke-linecap="round" stroke-linejoin="round"/>
</g>
<defs>
<clipPath id="clip0_4082_29338">
<rect width="32" height="32" fill="white" transform="translate(0 0.0703125)"/>
</clipPath>
</defs>
</svg>
