<?xml version="1.0" standalone="no"?>
<!DOCTYPE svg PUBLIC "-//W3C//DTD SVG 20010904//EN"
 "http://www.w3.org/TR/2001/REC-SVG-20010904/DTD/svg10.dtd">
<svg version="1.0" xmlns="http://www.w3.org/2000/svg"
 width="260.000000pt" height="260.000000pt" viewBox="0 0 260.000000 260.000000"
 preserveAspectRatio="xMidYMid meet">

<g transform="translate(0.000000,260.000000) scale(0.100000,-0.100000)"
fill="#262aff" stroke="none">
<path d="M1136 2579 c-285 -39 -546 -168 -746 -369 -203 -203 -323 -444 -366
-731 -97 -662 336 -1288 996 -1440 127 -30 349 -36 481 -15 532 88 943 478
1061 1006 30 137 33 389 5 518 -114 523 -497 908 -1010 1013 -117 24 -318 33
-421 18z m682 -186 c49 -36 66 -69 66 -127 1 -61 -18 -95 -74 -133 -93 -64
-230 11 -230 127 0 95 72 164 163 157 27 -2 60 -13 75 -24z m-303 -51 c29 -8
30 -11 27 -58 -8 -118 82 -214 198 -214 38 1 107 36 140 71 l29 32 48 -38
c183 -148 313 -347 375 -575 20 -75 23 -106 22 -270 0 -157 -3 -197 -22 -263
-104 -378 -391 -664 -770 -770 -66 -18 -104 -21 -262 -21 -159 0 -196 3 -263
22 -395 110 -698 427 -778 816 -24 115 -25 311 -3 427 60 318 277 602 570 748
175 87 296 112 504 107 85 -3 169 -8 185 -14z"/>
<path d="M1133 2145 c-203 -55 -323 -211 -323 -419 0 -109 58 -231 137 -289
l32 -24 -56 -39 c-75 -51 -114 -108 -121 -173 -2 -29 1 -64 8 -81 14 -33 77
-95 116 -112 13 -6 24 -14 23 -17 0 -3 -31 -21 -70 -39 -94 -45 -122 -83 -127
-172 -7 -125 36 -198 150 -254 173 -85 515 -89 714 -10 84 34 163 106 195 176
20 44 24 69 24 153 0 84 -4 107 -22 141 -60 113 -163 148 -508 174 -77 6 -151
14 -165 17 -64 16 -89 56 -65 103 22 42 54 51 163 44 229 -14 413 77 472 233
96 254 -48 526 -311 588 -79 18 -197 18 -266 0z m245 -226 c64 -31 96 -85 100
-169 6 -95 -25 -153 -102 -192 -31 -16 -54 -19 -112 -16 -63 3 -78 7 -111 34
-58 46 -75 86 -71 170 4 84 35 142 95 173 53 28 143 28 201 0z m90 -1006 c23
-3 57 -15 75 -27 26 -18 33 -29 35 -63 4 -56 -38 -104 -116 -134 -81 -30 -237
-38 -317 -15 -144 42 -170 159 -51 232 40 25 43 25 186 19 80 -3 164 -9 188
-12z"/>
</g>
</svg>
