<svg width="28" height="20" viewBox="0 0 28 20" fill="none" xmlns="http://www.w3.org/2000/svg">
<path d="M7.71069 19.5141C5.8239 19.5141 4.30398 18.7482 3.15094 17.2165C2.05031 15.632 1.5 13.7042 1.5 11.4331C1.5 8.05281 2.4696 5.41197 4.4088 3.51056C6.40042 1.60915 9.12579 0.605632 12.5849 0.5V4.22359C10.2788 4.27641 8.60168 4.93662 7.55346 6.20423C6.50524 7.47183 5.98113 8.92429 5.98113 10.5616C5.98113 11.037 6.00734 11.3803 6.05975 11.5915C6.68868 10.9577 7.57966 10.6408 8.7327 10.6408C9.99056 10.6408 10.9864 11.0106 11.7201 11.75C12.5063 12.4894 12.8994 13.5458 12.8994 14.919C12.8994 16.2394 12.4277 17.3486 11.4843 18.2465C10.5933 19.0915 9.33543 19.5141 7.71069 19.5141ZM21.3113 19.5141C19.4245 19.5141 17.9046 18.7482 16.7516 17.2165C15.6509 15.632 15.1006 13.7042 15.1006 11.4331C15.1006 8.05281 16.0702 5.41197 18.0094 3.51056C20.001 1.60915 22.7264 0.605632 26.1855 0.5V4.22359C23.8795 4.27641 22.2023 4.93662 21.1541 6.20423C20.1059 7.47183 19.5818 8.92429 19.5818 10.5616C19.5818 11.037 19.608 11.3803 19.6604 11.5915C20.2893 10.9577 21.1803 10.6408 22.3333 10.6408C23.5912 10.6408 24.587 11.0106 25.3208 11.75C26.1069 12.4894 26.5 13.5458 26.5 14.919C26.5 16.2394 26.0283 17.3486 25.0849 18.2465C24.1939 19.0915 22.9361 19.5141 21.3113 19.5141Z" fill="#262aff"/>
</svg>
