<svg width="70" height="70" viewBox="0 0 70 70" fill="none" xmlns="http://www.w3.org/2000/svg">
<path d="M26 26V24.5C25.1716 24.5 24.5 25.1716 24.5 26H26ZM32 26H33.5C33.5 25.1716 32.8284 24.5 32 24.5V26ZM32 44V45.5C32.8284 45.5 33.5 44.8284 33.5 44H32ZM26 44H24.5C24.5 44.8284 25.1716 45.5 26 45.5V44ZM26 27.5H32V24.5H26V27.5ZM30.5 26V44H33.5V26H30.5ZM32 42.5H26V45.5H32V42.5ZM27.5 44V26H24.5V44H27.5Z" fill="white"/>
<path d="M38 26V24.5C37.1716 24.5 36.5 25.1716 36.5 26H38ZM44 26H45.5C45.5 25.1716 44.8284 24.5 44 24.5V26ZM44 44V45.5C44.8284 45.5 45.5 44.8284 45.5 44H44ZM38 44H36.5C36.5 44.8284 37.1716 45.5 38 45.5V44ZM38 27.5H44V24.5H38V27.5ZM42.5 26V44H45.5V26H42.5ZM44 42.5H38V45.5H44V42.5ZM39.5 44V26H36.5V44H39.5Z" fill="white"/>
<path d="M35 68C53.2254 68 68 53.2254 68 35C68 16.7746 53.2254 2 35 2C16.7746 2 2 16.7746 2 35C2 53.2254 16.7746 68 35 68Z" stroke="white" stroke-width="3" stroke-miterlimit="10"/>
</svg>
