<svg width="56" height="40" viewBox="0 0 56 40" fill="none" xmlns="http://www.w3.org/2000/svg">
<path d="M15.4214 39.0282C11.6478 39.0282 8.60797 37.4965 6.30189 34.4331C4.10063 31.2641 3 27.4084 3 22.8662C3 16.1056 4.9392 10.8239 8.81761 7.02112C12.8008 3.21831 18.2516 1.21126 25.1698 1V8.44718C20.5577 8.55281 17.2034 9.87324 15.1069 12.4085C13.0105 14.9437 11.9623 17.8486 11.9623 21.1232C11.9623 22.0739 12.0147 22.7606 12.1195 23.1831C13.3774 21.9155 15.1593 21.2817 17.4654 21.2817C19.9811 21.2817 21.9727 22.0211 23.4402 23.5C25.0126 24.9789 25.7987 27.0915 25.7987 29.838C25.7987 32.4789 24.8553 34.6972 22.9686 36.493C21.1866 38.1831 18.6709 39.0282 15.4214 39.0282ZM42.6226 39.0282C38.8491 39.0282 35.8092 37.4965 33.5031 34.4331C31.3019 31.2641 30.2013 27.4084 30.2013 22.8662C30.2013 16.1056 32.1405 10.8239 36.0189 7.02112C40.0021 3.21831 45.4528 1.21126 52.3711 1V8.44718C47.7589 8.55281 44.4046 9.87324 42.3082 12.4085C40.2117 14.9437 39.1635 17.8486 39.1635 21.1232C39.1635 22.0739 39.2159 22.7606 39.3208 23.1831C40.5786 21.9155 42.3606 21.2817 44.6667 21.2817C47.1824 21.2817 49.174 22.0211 50.6415 23.5C52.2138 24.9789 53 27.0915 53 29.838C53 32.4789 52.0566 34.6972 50.1698 36.493C48.3878 38.1831 45.8721 39.0282 42.6226 39.0282Z" fill="#ffffff"/>
</svg>
