<svg width="56" height="40" viewBox="0 0 56 40" fill="none" xmlns="http://www.w3.org/2000/svg">
<path d="M40.5786 0.971832C44.3522 0.971832 47.392 2.50353 49.6981 5.56691C51.8994 8.73592 53 12.5916 53 17.1338C53 23.8944 51.0608 29.1761 47.1824 32.9789C43.1992 36.7817 37.7484 38.7887 30.8302 39V31.5528C35.4423 31.4472 38.7966 30.1268 40.8931 27.5915C42.9895 25.0563 44.0377 22.1514 44.0377 18.8768C44.0377 17.9261 43.9853 17.2394 43.8805 16.8169C42.6226 18.0845 40.8407 18.7183 38.5346 18.7183C36.0189 18.7183 34.0273 17.9789 32.5598 16.5C30.9874 15.0211 30.2013 12.9085 30.2013 10.162C30.2013 7.52113 31.1447 5.30282 33.0314 3.50705C34.8134 1.81691 37.3291 0.971832 40.5786 0.971832ZM13.3774 0.971832C17.1509 0.971832 20.1908 2.50353 22.4969 5.56691C24.6981 8.73592 25.7987 12.5916 25.7987 17.1338C25.7987 23.8944 23.8595 29.1761 19.9811 32.9789C15.9979 36.7817 10.5472 38.7887 3.62893 39V31.5528C8.24109 31.4472 11.5954 30.1268 13.6918 27.5915C15.7883 25.0563 16.8365 22.1514 16.8365 18.8768C16.8365 17.9261 16.7841 17.2394 16.6792 16.8169C15.4214 18.0845 13.6394 18.7183 11.3333 18.7183C8.81762 18.7183 6.826 17.9789 5.35849 16.5C3.78616 15.0211 3 12.9085 3 10.162C3 7.52113 3.9434 5.30282 5.8302 3.50705C7.61217 1.81691 10.1279 0.971832 13.3774 0.971832Z" fill="#1B1EC6"/>
</svg>
