<svg xmlns="http://www.w3.org/2000/svg" width="18" height="18" viewBox="0 0 18 18" fill="none">
<path fill-rule="evenodd" clip-rule="evenodd" d="M7.72222 0.5C3.7335 0.5 0.5 3.7335 0.5 7.72222C0.5 11.7109 3.7335 14.9444 7.72222 14.9444C9.3967 14.9444 10.9381 14.3746 12.163 13.4182C12.2098 13.5666 12.292 13.7062 12.4096 13.8238L15.7929 17.2071L15.8871 17.2903C16.2794 17.5953 16.8466 17.5676 17.2071 17.2071C17.5976 16.8166 17.5976 16.1834 17.2071 15.7929L13.8238 12.4096L13.7296 12.3264C13.6343 12.2523 13.5287 12.1978 13.4182 12.163C14.3746 10.9381 14.9444 9.3967 14.9444 7.72222C14.9444 3.7335 11.7109 0.5 7.72222 0.5ZM7.72222 2.5C10.6064 2.5 12.9444 4.83807 12.9444 7.72222C12.9444 10.6064 10.6064 12.9444 7.72222 12.9444C4.83807 12.9444 2.5 10.6064 2.5 7.72222C2.5 4.83807 4.83807 2.5 7.72222 2.5Z" fill="#000000"/>
</svg>