<svg width="21" height="22" viewBox="0 0 21 22" fill="none" xmlns="http://www.w3.org/2000/svg">
<path d="M3.80762 1.3916C4.56891 0.854113 5.63393 0.992 6.22949 1.73633L8.63867 4.74805L8.74121 4.88965C9.18421 5.56473 9.13503 6.45321 8.62012 7.0752L8.50293 7.2041L8.41406 7.29297C7.69462 8.01241 7.61316 9.15186 8.22363 9.96582L8.39941 10.1992L8.77148 10.6816C9.65518 11.7952 10.6436 12.8223 11.7236 13.748L11.8604 13.8535C12.5594 14.3445 13.5219 14.2707 14.1377 13.6553L14.332 13.4609C14.9759 12.8171 16.0009 12.7603 16.7119 13.3291L19.7783 15.7822L19.918 15.9062C20.5305 16.5108 20.6162 17.4755 20.1201 18.1787L20.0049 18.3252L18.9072 19.5801C17.9228 20.705 16.3359 21.0597 14.9775 20.4902L14.709 20.3643C9.30285 17.5325 4.89232 13.1222 2.06055 7.72656L1.79102 7.20117L1.61426 6.84766C0.887039 5.39317 1.2342 3.6304 2.45801 2.55957L3.66016 1.50781L3.80762 1.3916Z" stroke="black"/>
</svg>
