<svg width="16" height="16" viewBox="0 0 16 16" fill="none" xmlns="http://www.w3.org/2000/svg">
<path d="M6 7.19261C6 6.57396 6.2429 5.98345 6.67 5.56384C7.28951 4.95516 7.10348 3.53324 7.25 2.64951L7.29136 2.40003C7.625 1.75 8.26148 1.75 8.62015 1.75H8.79839C9.32395 1.75 9.75 2.20348 9.75 2.76287L10.3333 4.89164C10.3333 5.62644 11.1846 6.22211 11.875 6.22211M15 7.28648V8C15 8.41421 14.6642 8.75 14.25 8.75H11.875L14.25 8.75C14.6642 8.75 15 8.3926 15 7.95172V7.28648ZM15 7.28648C15 6.69864 14.5523 6.22211 14 6.22211M14 6.22211C14 6.22211 12.5654 6.22211 11.875 6.22211M14 6.22211H11.875" stroke="#262aff" stroke-linecap="round" stroke-linejoin="round"/>
<path d="M14.75 9.80263V10.5C14.75 10.9142 14.4142 11.25 14 11.25H11.625L14 11.25C14.4142 11.25 14.75 10.8965 14.75 10.4605V9.80263ZM14.75 9.80263C14.75 9.22128 14.3023 8.75 13.75 8.75M13.75 8.75C13.75 8.75 11.4404 8.75 10.75 8.75H13.75Z" stroke="#262aff" stroke-linecap="round" stroke-linejoin="round"/>
<path d="M13.2346 11.28C13.7954 11.28 14.25 11.7456 14.25 12.32V12.97C14.25 13.4008 13.909 13.75 13.4885 13.75H7.5C6.67157 13.75 6 13.0784 6 12.25V10.5M13.2346 11.28C13.2346 11.28 10.8894 11.28 10.1885 11.28H13.2346Z" stroke="#262aff" stroke-linecap="round" stroke-linejoin="round"/>
<rect x="1" y="6" width="3.25" height="7.75" rx="1" stroke="#262aff" stroke-linejoin="round"/>
</svg>
