<svg width="16" height="14" viewBox="0 0 16 14" fill="none" xmlns="http://www.w3.org/2000/svg">
<path d="M6 7.80739C6 8.42604 6.2429 9.01655 6.67 9.43616C7.28951 10.0448 7.10348 11.4668 7.25 12.3505L7.29136 12.6C7.625 13.25 8.26148 13.25 8.62015 13.25H8.79839C9.32395 13.25 9.75 12.7965 9.75 12.2371L10.3333 10.1084C10.3333 9.37356 11.1846 8.77789 11.875 8.77789M15 7.71352V7C15 6.58579 14.6642 6.25 14.25 6.25H11.875L14.25 6.25C14.6642 6.25 15 6.6074 15 7.04828V7.71352ZM15 7.71352C15 8.30136 14.5523 8.77789 14 8.77789M14 8.77789C14 8.77789 12.5654 8.77789 11.875 8.77789M14 8.77789H11.875" stroke="#262aff" stroke-linecap="round" stroke-linejoin="round"/>
<path d="M14.75 5.19737V4.5C14.75 4.08579 14.4142 3.75 14 3.75H11.625L14 3.75C14.4142 3.75 14.75 4.10346 14.75 4.53947V5.19737ZM14.75 5.19737C14.75 5.77872 14.3023 6.25 13.75 6.25M13.75 6.25C13.75 6.25 11.4404 6.25 10.75 6.25H13.75Z" stroke="#262aff" stroke-linecap="round" stroke-linejoin="round"/>
<path d="M13.2346 3.72C13.7954 3.72 14.25 3.25438 14.25 2.68V2.03C14.25 1.59922 13.909 1.25 13.4885 1.25H7.5C6.67157 1.25 6 1.92157 6 2.75V4.5M13.2346 3.72C13.2346 3.72 10.8894 3.72 10.1885 3.72H13.2346Z" stroke="#262aff" stroke-linecap="round" stroke-linejoin="round"/>
<rect width="3.25" height="7.75" rx="1" transform="matrix(1 0 0 -1 1 9)" stroke="#262aff" stroke-linejoin="round"/>
</svg>
